<svg width="162" height="21" viewBox="0 0 162 21" fill="none" xmlns="http://www.w3.org/2000/svg">
<g clip-path="url(#clip0_26_353)">
<mask id="mask0_26_353" style="mask-type:luminance" maskUnits="userSpaceOnUse" x="0" y="1" width="162" height="20">
<path d="M161.432 1.2572H0.399414V20.7572H161.432V1.2572Z" fill="white"/>
</mask>
<g mask="url(#mask0_26_353)">
<path d="M104.693 20.0064H100.289V2.03479L114.452 2.04645C114.452 2.04645 117.045 1.94973 118.694 3.57936C118.694 3.57936 120.378 4.9853 120.378 8.42168V20.0036H115.986V8.12233C115.986 8.12233 116.04 6.91045 115.627 6.48517C115.627 6.48517 115.262 6.02323 114.568 6.02323H104.682L104.691 20L104.693 20.0064ZM123.439 20.0032V3.1775V2.04821H141.111V6.04201L127.815 6.04099V9.0944H137.052V12.9509H127.815V16.0147H141.193V20.0095H123.428L123.439 20.0032ZM92.6153 20.0032V3.1775V2.04821H97.0003V20.0095H92.6153V20.0032ZM147.423 20.0032V6.03685H143.284V2.04305H159.748V6.03685H151.812V20.0032H147.426H147.423ZM78.1327 20.0032V6.03685H73.9933V2.04305H90.4578V6.03685H82.5208V20.0032H78.1358H78.1327ZM64.9094 9.08201C65.9809 9.07376 66.6221 9.08305 66.8801 8.92593C66.8801 8.92593 67.3303 8.67696 67.3355 8.14266L67.3365 6.96795C67.3365 6.43118 66.8812 6.18468 66.8812 6.18468C66.5393 5.99887 65.9598 6.03376 64.5843 6.03242H56.0414V9.08171H65.1056L64.9094 9.08201ZM67.2723 20.0032V13.8737C67.2723 13.3227 66.8117 13.0918 66.8117 13.0918C66.604 12.9628 65.9819 12.9396 65.0662 12.9396H65.279H56.0414V20.0023H51.6563V3.17646V2.04718H65.344C67.708 2.05441 69.34 2.40207 70.4641 3.49338C71.5686 4.61854 71.7152 6.09053 71.7213 7.62241V8.90138C71.7356 10.2031 71.0517 11.3901 70.2359 12.0818L70.3999 12.1631C70.7328 12.3243 70.9148 12.5528 70.9148 12.5528C71.5353 13.345 71.5277 14.0269 71.5263 14.865V20.0068H67.2725L67.2723 20.0032ZM0.960072 2.04202V3.17234V19.9982H5.34511V12.9416H18.6302V9.08305H5.34511V6.03169H20.7877V2.03788H0.958008L0.960072 2.04202Z" fill="#231F20"/>
<path d="M158.265 16.8269V17.6515H159.033C159.241 17.6515 159.443 17.5949 159.473 17.2864C159.517 16.8774 159.222 16.8269 159.033 16.8269H158.265ZM157.957 16.556H159.027C159.399 16.556 159.757 16.6257 159.787 17.1662C159.8 17.476 159.707 17.5884 159.473 17.765C159.72 17.9225 159.726 17.9599 159.763 18.3752C159.787 18.6901 159.744 18.7405 159.877 18.9482H159.512L159.461 18.6463C159.41 18.3624 159.549 17.9225 159.053 17.9225H158.265V18.9483H157.957V16.556ZM158.762 15.8954C157.705 15.8954 156.843 16.7573 156.851 17.8216C156.851 18.8786 157.706 19.7405 158.769 19.7354C159.828 19.7354 160.69 18.8786 160.69 17.8153C160.69 16.7573 159.826 15.8954 158.762 15.8954ZM158.769 19.9852C157.568 19.9852 156.597 19.0161 156.597 17.8153C156.592 16.6189 157.568 15.6436 158.769 15.6436C159.965 15.6436 160.942 16.6189 160.942 17.8153C160.942 19.0169 159.965 19.981 158.769 19.9852Z" fill="#231F20"/>
<path d="M45.6259 20.182C47.0504 19.698 48.1591 18.0575 48.4253 15.9951V15.399H41.1222V20.1825L45.6259 20.182ZM48.4264 6.62838V6.08903C48.1465 3.93677 46.9554 2.24077 45.437 1.84232H41.1232V6.62786L48.4264 6.62838ZM22.7231 15.3995V15.9904C22.9877 18.0549 24.0961 19.6984 25.5248 20.1825H30.0047V15.399L22.7231 15.3995ZM25.7116 1.84593C24.1951 2.24459 23.0008 3.94141 22.7231 6.09678V6.63231H30.0047V1.84676L25.7116 1.84593ZM48.4316 8.62374H41.1283V13.4092H48.4316V8.62374ZM31.998 20.185H39.1423V15.4015H31.998V20.185ZM39.1423 1.8418H31.998V6.62736H39.1423V1.8418ZM22.7294 13.4031H30.0109V8.61754H22.7294V13.4031Z" fill="#EE2E24"/>
</g>
</g>
<defs>
<clipPath id="clip0_26_353">
<rect width="161.2" height="20.8" fill="white" transform="translate(0.399902 0.0501709)"/>
</clipPath>
</defs>
</svg>
