<svg version="1.1" id="Icons" xmlns="http://www.w3.org/2000/svg" xmlns:xlink="http://www.w3.org/1999/xlink" viewBox="0 0 32 32" xml:space="preserve" fill="#000000" transform="rotate(0)"><g id="SVGRepo_bgCarrier" stroke-width="0"></g><g id="SVGRepo_tracerCarrier" stroke-linecap="round" stroke-linejoin="round"></g><g id="SVGRepo_iconCarrier"> <style type="text/css"> .st0{fill:none;stroke:#000000;stroke-width:2;stroke-linecap:round;stroke-linejoin:round;stroke-miterlimit:10;} </style> <path d="M30,15h-4.1c-0.2-2-1-3.8-2.2-5.3l2.9-2.9c0.4-0.4,0.4-1,0-1.4s-1-0.4-1.4,0l-2.9,2.9C20.8,7,19,6.3,17,6.1V2 c0-0.6-0.4-1-1-1s-1,0.4-1,1v4.1c-2,0.2-3.8,1-5.3,2.2L6.8,5.4C6.4,5,5.8,5,5.4,5.4s-0.4,1,0,1.4l2.9,2.9C7,11.2,6.3,13,6.1,15H2 c-0.6,0-1,0.4-1,1s0.4,1,1,1h4.1c0.2,2,1,3.8,2.2,5.3l-2.9,2.9c-0.4,0.4-0.4,1,0,1.4c0.2,0.2,0.5,0.3,0.7,0.3s0.5-0.1,0.7-0.3 l2.9-2.9c1.5,1.2,3.3,2,5.3,2.2V30c0,0.6,0.4,1,1,1s1-0.4,1-1v-4.1c2-0.2,3.8-1,5.3-2.2l2.9,2.9c0.2,0.2,0.5,0.3,0.7,0.3 s0.5-0.1,0.7-0.3c0.4-0.4,0.4-1,0-1.4l-2.9-2.9c1.2-1.5,2-3.3,2.2-5.3H30c0.6,0,1-0.4,1-1S30.6,15,30,15z M23.9,15h-4.1 c-0.1-0.4-0.2-0.7-0.4-1l2.9-2.9C23.2,12.2,23.7,13.5,23.9,15z M20.9,9.7L18,12.6c-0.3-0.2-0.7-0.3-1-0.4V8.1 C18.5,8.3,19.8,8.8,20.9,9.7z M15,8.1v4.1c-0.4,0.1-0.7,0.2-1,0.4l-2.9-2.9C12.2,8.8,13.5,8.3,15,8.1z M9.7,11.1l2.9,2.9 c-0.2,0.3-0.3,0.7-0.4,1H8.1C8.3,13.5,8.8,12.2,9.7,11.1z M8.1,17h4.1c0.1,0.4,0.2,0.7,0.4,1l-2.9,2.9C8.8,19.8,8.3,18.5,8.1,17z M11.1,22.3l2.9-2.9c0.3,0.2,0.7,0.3,1,0.4v4.1C13.5,23.7,12.2,23.2,11.1,22.3z M17,23.9v-4.1c0.4-0.1,0.7-0.2,1-0.4l2.9,2.9 C19.8,23.2,18.5,23.7,17,23.9z M22.3,20.9L19.4,18c0.2-0.3,0.3-0.7,0.4-1h4.1C23.7,18.5,23.2,19.8,22.3,20.9z"></path> </g></svg>
