<svg width="142" height="43" viewBox="0 0 142 43" fill="none" xmlns="http://www.w3.org/2000/svg">
<g clip-path="url(#clip0_26_337)">
<mask id="mask0_26_337" style="mask-type:luminance" maskUnits="userSpaceOnUse" x="1" y="0" width="140" height="43">
<path d="M140.561 0.557251H1.85986V42.1572H140.561V0.557251Z" fill="white"/>
</mask>
<g mask="url(#mask0_26_337)">
<path d="M22.6597 0.557251C11.1725 0.557251 1.85986 9.86966 1.85986 21.3569C1.85986 32.8453 11.1725 42.1573 22.6597 42.1573C34.1474 42.1573 43.4596 32.8453 43.4596 21.3569C43.4596 9.8704 34.1482 0.557251 22.6597 0.557251ZM32.1984 30.5562C31.8248 31.169 31.0266 31.3611 30.4158 30.9877C25.5315 28.0025 19.3836 27.3281 12.1434 28.9821C11.4457 29.142 10.7503 28.7046 10.5913 28.0072C10.4316 27.3095 10.867 26.614 11.5664 26.4551C19.4896 24.6437 26.286 25.4233 31.7685 28.7734C32.3795 29.1485 32.5735 29.9452 32.1984 30.5562ZM34.7442 24.8936C34.2739 25.6568 33.2759 25.8962 32.5136 25.4275C26.9238 21.9914 18.4002 20.9963 11.7873 23.0036C10.9296 23.2627 10.0238 22.7794 9.76347 21.9232C9.50516 21.0656 9.98876 20.1614 10.8449 19.9006C18.3988 17.6086 27.7895 18.7188 34.2101 22.6643C34.9725 23.1337 35.2137 24.132 34.7442 24.8936ZM34.9629 18.9961C28.2581 15.0143 17.1989 14.6483 10.7985 16.5907C9.77067 16.9025 8.68377 16.3223 8.3723 15.2945C8.06083 14.2662 8.64055 13.18 9.66908 12.8676C17.0164 10.6371 29.2303 11.0681 36.9484 15.6499C37.8728 16.1985 38.1761 17.3926 37.6282 18.3157C37.0818 19.2402 35.8843 19.545 34.9629 18.9961ZM58.4495 19.7591C54.8581 18.9026 54.2188 18.3016 54.2188 17.0386C54.2188 15.8454 55.3422 15.0424 57.0128 15.0424C58.6323 15.0424 60.238 15.6521 61.9215 16.9074C61.9725 16.9455 62.0363 16.9606 62.0991 16.9507C62.1619 16.9412 62.2175 16.9067 62.2543 16.8547L64.0079 14.3829C64.0799 14.2811 64.0603 14.1407 63.9632 14.063C61.9595 12.4553 59.7032 11.6736 57.066 11.6736C53.1884 11.6736 50.4798 14.0007 50.4798 17.3302C50.4798 20.9006 52.8162 22.1649 56.8539 23.1408C60.2904 23.9323 60.8705 24.5955 60.8705 25.7809C60.8705 27.0946 59.6976 27.9112 57.8101 27.9112C55.7139 27.9112 54.004 27.2052 52.0912 25.5488C52.0438 25.5078 51.9787 25.4891 51.9187 25.4926C51.8552 25.4978 51.7974 25.5272 51.7572 25.5755L49.7911 27.9155C49.7085 28.0126 49.7189 28.1577 49.8144 28.2417C52.0398 30.2284 54.777 31.2779 57.7307 31.2779C61.9092 31.2779 64.6093 28.9948 64.6093 25.4611C64.6167 22.478 62.8309 20.8264 58.4569 19.7623L58.4495 19.7591ZM74.0625 16.2172C72.2513 16.2172 70.7657 16.9305 69.5407 18.3923V16.747C69.5407 16.6171 69.4354 16.5113 69.3058 16.5113H66.09C65.9601 16.5113 65.8551 16.6171 65.8551 16.747V35.0281C65.8551 35.158 65.9601 35.2638 66.09 35.2638H69.3058C69.4354 35.2638 69.5407 35.158 69.5407 35.0281V29.2575C70.7659 30.6325 72.2518 31.3044 74.0625 31.3044C77.4277 31.3044 80.8344 28.7139 80.8344 23.7616C80.8395 18.8083 77.4317 16.217 74.0661 16.217L74.0625 16.2172ZM77.0951 23.7616C77.0951 26.2834 75.5417 28.0432 73.3176 28.0432C71.1186 28.0432 69.46 26.2034 69.46 23.7616C69.46 21.3201 71.1186 19.4801 73.3176 19.4801C75.5057 19.4798 77.0951 21.2803 77.0951 23.7616ZM89.5661 16.2172C85.2322 16.2172 81.8369 19.5545 81.8369 23.8156C81.8369 28.0303 85.2089 31.3325 89.513 31.3325C93.8624 31.3325 97.2681 28.0064 97.2681 23.7616C97.2681 19.5316 93.8855 16.2172 89.5661 16.2172ZM89.5661 28.0683C87.261 28.0683 85.523 26.2162 85.523 23.7605C85.523 21.2942 87.2009 19.5047 89.513 19.5047C91.8331 19.5047 93.5826 21.3569 93.5826 23.8143C93.5826 26.28 91.8934 28.0683 89.5661 28.0683ZM106.523 16.5113H102.984V12.8934C102.984 12.7638 102.879 12.658 102.75 12.658H99.5343C99.4042 12.658 99.2986 12.7638 99.2986 12.8934V16.5113H97.7525C97.623 16.5113 97.5182 16.6171 97.5182 16.747V19.5106C97.5182 19.6404 97.623 19.7463 97.7525 19.7463H99.2986V26.8974C99.2986 29.7873 100.737 31.2525 103.574 31.2525C104.727 31.2525 105.684 31.0143 106.586 30.5029C106.659 30.4618 106.705 30.3829 106.705 30.299V27.6671C106.705 27.586 106.662 27.5092 106.593 27.4668C106.523 27.4227 106.436 27.4205 106.364 27.456C105.745 27.7677 105.146 27.9115 104.476 27.9115C103.445 27.9115 102.984 27.4431 102.984 26.3932V19.7476H106.523C106.653 19.7476 106.757 19.6418 106.757 19.5119V16.7485C106.762 16.6185 106.658 16.5128 106.526 16.5128L106.523 16.5113ZM118.852 16.5255V16.0811C118.852 14.7738 119.354 14.1909 120.478 14.1909C121.148 14.1909 121.687 14.324 122.29 14.5253C122.364 14.5485 122.441 14.537 122.502 14.4925C122.564 14.4479 122.599 14.3767 122.599 14.3012V11.5914C122.599 11.4878 122.532 11.3962 122.432 11.3656C121.795 11.1761 120.98 10.9816 119.76 10.9816C116.79 10.9816 115.22 12.6542 115.22 15.8168V16.4974H113.675C113.545 16.4974 113.439 16.6032 113.439 16.7328V19.5106C113.439 19.6404 113.545 19.7463 113.675 19.7463H115.22V30.7766C115.22 30.9064 115.324 31.0123 115.454 31.0123H118.67C118.8 31.0123 118.906 30.9064 118.906 30.7766V19.7471H121.908L126.507 30.7746C125.985 31.9333 125.472 32.1638 124.771 32.1638C124.204 32.1638 123.608 31.9947 122.998 31.6608C122.94 31.6292 122.872 31.624 122.81 31.6432C122.749 31.6647 122.697 31.7105 122.671 31.77L121.581 34.1613C121.529 34.2742 121.574 34.4068 121.683 34.4655C122.82 35.0817 123.848 35.3448 125.117 35.3448C127.491 35.3448 128.804 34.2387 129.961 31.2632L135.54 16.8473C135.567 16.7748 135.559 16.6928 135.515 16.6285C135.471 16.5647 135.399 16.5262 135.321 16.5262H131.974C131.874 16.5262 131.784 16.5899 131.75 16.6842L128.321 26.4797L124.565 16.6777C124.531 16.5866 124.443 16.5261 124.346 16.5261L118.852 16.5255ZM111.704 16.5113H108.488C108.358 16.5113 108.253 16.6171 108.253 16.747V30.7766C108.253 30.9064 108.358 31.0123 108.488 31.0123H111.704C111.834 31.0123 111.94 30.9064 111.94 30.7766V16.748C111.94 16.7169 111.934 16.6863 111.922 16.6577C111.91 16.6289 111.893 16.6029 111.871 16.5811C111.849 16.5591 111.823 16.5418 111.794 16.53C111.765 16.5182 111.735 16.5112 111.704 16.5113ZM110.114 10.1233C108.84 10.1233 107.807 11.1545 107.807 12.4285C107.807 13.7032 108.841 14.7356 110.114 14.7356C111.388 14.7356 112.421 13.7032 112.421 12.4285C112.421 11.1548 111.386 10.1233 110.114 10.1233ZM138.285 21.022C137.013 21.022 136.022 20 136.022 18.7589C136.022 17.5177 137.026 16.484 138.297 16.484C139.57 16.484 140.56 17.5058 140.56 18.7459C140.56 19.9871 139.557 21.022 138.285 21.022ZM138.298 16.709C137.139 16.709 136.261 17.6305 136.261 18.7589C136.261 19.8867 137.132 20.7958 138.287 20.7958C139.445 20.7958 140.324 19.875 140.324 18.7459C140.324 17.6181 139.451 16.709 138.298 16.709ZM138.8 18.9787L139.44 19.8748H138.9L138.324 19.0527H137.828V19.8748H137.377V17.4993H138.436C138.987 17.4993 139.35 17.7818 139.35 18.2572C139.353 18.6465 139.125 18.8846 138.8 18.9787ZM138.417 17.907H137.828V18.6582H138.417C138.712 18.6582 138.887 18.5145 138.887 18.2823C138.887 18.0379 138.709 17.907 138.417 17.907Z" fill="#2EBD59"/>
</g>
</g>
<defs>
<clipPath id="clip0_26_337">
<rect width="140.4" height="42.9" fill="white" transform="translate(0.699707 0.000244141)"/>
</clipPath>
</defs>
</svg>
