<svg fill="#000000" version="1.1" id="Icons" xmlns="http://www.w3.org/2000/svg" xmlns:xlink="http://www.w3.org/1999/xlink" viewBox="0 0 32 32" xml:space="preserve"><g id="SVGRepo_bgCarrier" stroke-width="0"></g><g id="SVGRepo_tracerCarrier" stroke-linecap="round" stroke-linejoin="round"></g><g id="SVGRepo_iconCarrier"> <g> <path d="M13,14c-0.6,0-1,0.4-1,1v2c0,0.6,0.4,1,1,1s1-0.4,1-1v-2C14,14.4,13.6,14,13,14z"></path> <path d="M29,8H3c-1.7,0-3,1.3-3,3v10c0,1.7,1.3,3,3,3h26c1.7,0,3-1.3,3-3V11C32,9.3,30.7,8,29,8z M16,17c0,1.7-1.3,3-3,3 s-3-1.3-3-3v-2c0-1.7,1.3-3,3-3s3,1.3,3,3V17z M21.8,18.4c0.3,0.5,0.2,1.1-0.3,1.4C21.4,19.9,21.2,20,21,20c-0.3,0-0.6-0.2-0.8-0.4 L19,17.8V19c0,0.6-0.4,1-1,1s-1-0.4-1-1v-6c0-0.6,0.4-1,1-1s1,0.4,1,1v1l1.2-1.6c0.3-0.4,1-0.5,1.4-0.2c0.4,0.3,0.5,1,0.2,1.4 l-1.7,2.3L21.8,18.4z"></path> </g> </g></svg>
