<svg width="85" height="35" viewBox="0 0 85 35" fill="none" xmlns="http://www.w3.org/2000/svg">
<g clip-path="url(#clip0_26_295)">
<mask id="mask0_26_295" style="mask-type:luminance" maskUnits="userSpaceOnUse" x="2" y="1" width="82" height="34">
<path d="M83.1325 1.7572H2.11523V34.2572H83.1325V1.7572Z" fill="white"/>
</mask>
<g mask="url(#mask0_26_295)">
<path d="M2.11523 31.9943H17.8677V34.2492H2.11523V31.9943Z" fill="#1F70C1"/>
<path d="M2.11523 27.6689H17.8677V29.9319H2.11523V27.6689Z" fill="#1F70C1"/>
<path d="M6.60938 23.3517H13.3661V25.6146H6.60938V23.3517Z" fill="#1F70C1"/>
<path d="M6.60938 19.0343H13.3661V21.2973H6.60938V19.0343Z" fill="#1F70C1"/>
<path d="M6.60938 14.7169H13.3661V16.9798H6.60938V14.7169Z" fill="#1F70C1"/>
<path d="M6.60938 10.3916H13.3661V12.6546H6.60938V10.3916Z" fill="#1F70C1"/>
<path d="M17.8677 6.07458H2.11523V8.33756H17.8677V6.07458Z" fill="#1F70C1"/>
<path d="M17.8677 1.7572H2.11523V4.02018H17.8677V1.7572Z" fill="#1F70C1"/>
<path d="M20.1143 29.9319H44.3408C44.75 29.2338 45.055 28.4714 45.2396 27.6689H20.1143V29.9319Z" fill="#1F70C1"/>
<path d="M42.4546 19.0343H24.6157V21.2973H44.3404C43.8267 20.4305 43.1927 19.6683 42.4546 19.0343Z" fill="#1F70C1"/>
<path d="M24.6157 14.7169V16.9798H42.4546C43.2088 16.3458 43.8427 15.5835 44.3404 14.7169H24.6157Z" fill="#1F70C1"/>
<path d="M44.3409 6.07458H20.1143V8.33756H45.2396C45.031 7.53508 44.726 6.77279 44.3409 6.07458Z" fill="#1F70C1"/>
<path d="M36.8939 1.7572H20.1143V4.02018H42.6797C41.1711 2.62384 39.1248 1.7572 36.8939 1.7572Z" fill="#1F70C1"/>
<path d="M31.3644 10.392H24.6157V12.6549H31.3644V10.392Z" fill="#1F70C1"/>
<path d="M38.1216 12.6546H45.1833C45.3839 11.9324 45.4882 11.17 45.4882 10.3916H38.1216V12.6546Z" fill="#1F70C1"/>
<path d="M24.6157 23.3517H31.3644V25.6146H24.6157V23.3517Z" fill="#1F70C1"/>
<path d="M38.1216 23.3517V25.6146H45.4882C45.4882 24.8362 45.3839 24.0738 45.1833 23.3517H38.1216Z" fill="#1F70C1"/>
<path d="M20.1143 34.2333L36.8939 34.2573C39.1408 34.2573 41.1711 33.3906 42.6877 31.9943H20.1143V34.2333Z" fill="#1F70C1"/>
<path d="M47.1255 31.9943H58.3761V34.2492H47.1255V31.9943Z" fill="#1F70C1"/>
<path d="M47.1255 27.6689H58.3761V29.9319H47.1255V27.6689Z" fill="#1F70C1"/>
<path d="M51.6196 23.3517H58.3764V25.6146H51.6196V23.3517Z" fill="#1F70C1"/>
<path d="M51.6196 19.0343H58.3764V21.2973H51.6196V19.0343Z" fill="#1F70C1"/>
<path d="M61.5058 6.07458H47.1255V8.33756H62.2841L61.5058 6.07458Z" fill="#1F70C1"/>
<path d="M60.0132 1.7572H47.1255V4.02018H60.7916L60.0132 1.7572Z" fill="#1F70C1"/>
<path d="M71.874 31.9943H83.1327V34.2492H71.874V31.9943Z" fill="#1F70C1"/>
<path d="M71.874 27.6687H83.1327V29.9315H71.874V27.6687Z" fill="#1F70C1"/>
<path d="M71.874 23.3517H78.6308V25.6146H71.874V23.3517Z" fill="#1F70C1"/>
<path d="M71.874 19.0343H78.6308V21.2973H71.874V19.0343Z" fill="#1F70C1"/>
<path d="M71.8739 16.9798H78.6306V14.7169H71.8739H65.7592L65.1252 16.5465L64.4912 14.7169H58.3764H51.6196V16.9798H58.3764V14.9014L59.0906 16.9798H71.1598L71.8739 14.9014V16.9798Z" fill="#1F70C1"/>
<path d="M78.6305 10.3916H67.2515L66.4731 12.6546H78.6305V10.3916Z" fill="#1F70C1"/>
<path d="M70.2452 1.7572L69.4668 4.02018H83.1329V1.7572H70.2452Z" fill="#1F70C1"/>
<path d="M65.1266 34.2333L65.9049 31.9943H64.3481L65.1266 34.2333Z" fill="#1F70C1"/>
<path d="M63.6318 29.9319H66.617L67.4195 27.6689H62.8374L63.6318 29.9319Z" fill="#1F70C1"/>
<path d="M62.1157 25.6146H68.1342L68.9286 23.3517H61.3213L62.1157 25.6146Z" fill="#1F70C1"/>
<path d="M60.6071 21.2973H69.6509L70.4213 19.0343H59.8286L60.6071 21.2973Z" fill="#1F70C1"/>
<path d="M51.6196 12.6546H63.777L62.9987 10.3916H51.6196V12.6546Z" fill="#1F70C1"/>
<path d="M67.9741 8.33756H83.1328V6.07458H68.7445L67.9741 8.33756Z" fill="#1F70C1"/>
</g>
</g>
<defs>
<clipPath id="clip0_26_295">
<rect width="83.2" height="33.8" fill="white" transform="translate(0.899902 0.550171)"/>
</clipPath>
</defs>
</svg>
