<svg width="138" height="36" viewBox="0 0 138 36" fill="none" xmlns="http://www.w3.org/2000/svg">
<path d="M30.2646 21.4513C28.0161 21.4513 26.2754 19.7106 26.2754 17.3896C26.2754 15.141 28.0161 13.4003 30.2646 13.4003C32.5131 13.4003 34.2539 15.141 34.2539 17.3896C34.2539 19.6381 32.4407 21.4513 30.2646 21.4513ZM37.5178 13.2552V10.499H32.6582C31.8604 10.1363 31.0625 10.0638 30.2646 10.0638C26.0578 10.0638 22.7939 13.2552 22.7939 17.4621C22.7939 21.6689 26.0578 24.7878 30.1921 24.7878C34.3265 24.7878 37.5904 21.5964 37.5904 17.4621C37.5904 16.0115 37.1553 14.7059 36.4299 13.6904L37.5178 13.2552ZM14.09 21.4513C11.8415 21.4513 10.1007 19.7106 10.1007 17.3896C10.1007 15.141 11.8415 13.4003 14.09 13.4003C16.3385 13.4003 18.0792 15.141 18.0792 17.3896C18.0792 19.6381 16.411 21.4513 14.09 21.4513ZM14.09 10.0638C9.88311 10.0638 6.69169 13.2552 6.69169 17.3896C6.69169 21.5239 9.95564 24.7878 14.09 24.7878C18.2243 24.7878 21.4883 21.5964 21.4883 17.4621C21.4883 13.3278 18.2968 10.0638 14.09 10.0638ZM1.83203 24.4252H5.24104V4.69642H1.83203V24.4252ZM39.041 24.4252H42.45V10.499H39.041V24.4252ZM30.2646 29.2849C28.0161 29.2849 26.2754 27.544 26.2754 25.2956H22.7939C22.7939 29.5025 26.0578 32.6213 30.1921 32.6213C34.3265 32.6213 37.6629 29.4299 37.6629 25.2956H34.2539C34.1814 27.6166 32.4407 29.2849 30.2646 29.2849ZM55.2883 16.0115C55.796 14.1981 57.1015 13.1827 58.9149 13.1827C60.7281 13.1827 62.1063 14.1981 62.469 16.0115H55.2883ZM59.0599 10.0638C54.8531 10.0638 51.7342 13.2552 51.7342 17.4621C51.7342 21.6689 54.5629 24.6428 59.0599 24.6428C61.4534 24.6428 63.702 23.6998 65.3702 22.0316L62.9766 19.6381C61.8161 20.7986 60.5831 21.4513 59.1324 21.4513C57.1741 21.4513 55.796 20.2908 55.3608 18.6227H66.1681V17.8247C66.1681 13.2552 63.1943 10.0638 59.0599 10.0638ZM89.6685 10.0638C87.9277 10.0638 86.4771 10.6441 85.4617 11.8046V4.62389H82.0526V24.3527H85.4617V16.8093C85.4617 14.7784 86.6946 13.4728 88.7981 13.4728C90.7565 13.4728 91.8444 14.7059 91.8444 16.8093V24.3527H95.2534V16.2291C95.3985 12.3848 92.9324 10.0638 89.6685 10.0638ZM74.6543 13.4728C76.1049 13.4728 77.2655 14.1981 78.2085 15.2861L80.602 12.8926C79.2239 11.1518 77.1929 10.1363 74.6543 10.1363C70.4475 10.1363 67.2561 13.3278 67.2561 17.4621C67.2561 21.5964 70.52 24.7878 74.6543 24.7878C77.048 24.7878 79.2239 23.6273 80.602 22.0316L78.2085 19.6381C77.2655 20.6535 76.0324 21.4513 74.6543 21.4513C72.4058 21.4513 70.8102 19.7106 70.8102 17.4621C70.6651 15.2135 72.4783 13.4728 74.6543 13.4728ZM49.4131 6.2196H46.0041V10.499H44.1909V13.5454H46.0041V24.3527H49.4131V13.5454H51.3715V10.499H49.4131V6.2196ZM40.8544 4.26123C39.6214 4.26123 38.6058 5.27669 38.6058 6.65479C38.6058 7.88784 39.6214 8.90328 40.8544 8.90328C42.2324 8.90328 43.248 7.88784 43.248 6.65479C43.1029 5.27669 42.0875 4.26123 40.8544 4.26123Z" fill="black"/>
<path fill-rule="evenodd" clip-rule="evenodd" d="M118.233 1.45715V8.49278C112.721 8.49278 108.369 12.8447 108.369 18.3572C108.369 23.7245 112.721 28.2216 118.233 28.2216V35.2572C108.877 35.2572 101.261 27.7138 101.261 18.3572C101.261 9.0005 108.877 1.45715 118.233 1.45715Z" fill="#00B8FD"/>
<path fill-rule="evenodd" clip-rule="evenodd" d="M136.959 11.8772H121.8V18.7678H129.996V26.9639H136.959V11.8772Z" fill="#00B8FD"/>
</svg>
