<svg width="118" height="33" viewBox="0 0 118 33" fill="none" xmlns="http://www.w3.org/2000/svg">
<g clip-path="url(#clip0_26_347)">
<mask id="mask0_26_347" style="mask-type:luminance" maskUnits="userSpaceOnUse" x="1" y="0" width="117" height="32">
<path d="M117.006 0.756958H1.56006V31.957H117.006V0.756958Z" fill="white"/>
</mask>
<g mask="url(#mask0_26_347)">
<path d="M17.4343 29.9459C15.6976 30.2509 13.9304 30.3423 12.1023 30.5858L6.52638 14.2546V31.2867C4.78974 31.4695 3.20539 31.7133 1.56006 31.957V0.756958H6.19144L12.5288 18.4596V0.756958H17.4343V29.9459ZM27.0319 12.1827C28.9211 12.1827 31.8157 12.0913 33.5523 12.0913V16.9662C31.3889 16.9662 28.8601 16.9662 27.0319 17.0577V24.3094C29.8961 24.1266 32.7601 23.8826 35.6546 23.7912V28.4831L22.1568 29.5497V0.756958H35.6546V5.63196H27.0319V12.1827ZM53.7835 5.63208H48.7257V28.057C47.0804 28.057 45.435 28.057 43.8509 28.1178V5.63208H38.7932V0.756958H53.7837L53.7835 5.63208ZM61.7053 11.8477H68.378V16.7226H61.7053V27.7828H56.9214V0.756958H70.5412V5.63196H61.7053V11.8477ZM78.463 23.5171C81.2358 23.5779 84.0387 23.7916 86.7507 23.9435V28.7577C82.3937 28.4833 78.0366 28.2095 73.5882 28.1178V0.756958H78.463V23.5171ZM90.8639 29.0928C92.4178 29.1845 94.063 29.2759 95.6475 29.4584V0.756958H90.8639V29.0928ZM117.006 0.756958L110.821 15.5953L117.006 31.957C115.178 31.7133 113.35 31.378 111.522 31.0733L108.018 22.0548L104.453 30.3423C102.686 30.0373 100.98 29.9459 99.2127 29.7022L105.489 15.4123L99.8219 0.756958H105.062L108.262 8.95307L111.674 0.756958H117.006Z" fill="#D81F26"/>
</g>
</g>
<defs>
<clipPath id="clip0_26_347">
<rect width="117" height="32.5" fill="white" transform="translate(0.799805 0.199951)"/>
</clipPath>
</defs>
</svg>
