<svg width="179" height="43" viewBox="0 0 179 43" fill="none" xmlns="http://www.w3.org/2000/svg">
<path d="M130.383 10.2476C130.383 10.536 130.329 10.8217 130.221 11.0882C130.113 11.3547 129.956 11.5969 129.757 11.801C129.558 12.005 129.322 12.1668 129.062 12.2772C128.803 12.3876 128.524 12.4445 128.243 12.4445C127.962 12.4445 127.684 12.3876 127.424 12.2772C127.164 12.1668 126.928 12.005 126.729 11.801C126.531 11.5969 126.373 11.3547 126.266 11.0882C126.158 10.8217 126.103 10.536 126.103 10.2476C126.103 9.95911 126.158 9.67346 126.266 9.40692C126.373 9.1404 126.531 8.89819 126.729 8.69419C126.928 8.49016 127.164 8.32833 127.424 8.2179C127.684 8.10748 127.962 8.05066 128.243 8.05066C128.524 8.05066 128.803 8.10748 129.062 8.2179C129.322 8.32833 129.558 8.49016 129.757 8.69419C129.956 8.89819 130.113 9.1404 130.221 9.40692C130.329 9.67346 130.383 9.95911 130.383 10.2476Z" fill="#999B9E"/>
<path d="M168.441 19.8926H162.994V25.4518H168.441V19.8926Z" fill="#999B9E"/>
<path d="M60.4006 19.8926H54.9531V25.4518H60.4006V19.8926Z" fill="#999B9E"/>
<path d="M44.0593 19.8926H38.6118V25.4518H44.0593V19.8926Z" fill="#999B9E"/>
<path d="M27.9695 19.8926H22.522V25.4518H27.9695V19.8926Z" fill="#999B9E"/>
<path d="M11.303 19.8926H5.85547V25.4518H11.303V19.8926Z" fill="#999B9E"/>
<path d="M18.9399 8.79609H19.5862C23.7608 8.79609 25.7065 11.0293 26.5195 16.9849L27.8123 16.9277L27.6397 7.47876H6.39734L6.18799 16.9277L7.43192 16.9849C7.64737 14.7516 7.90576 13.549 8.46651 12.3463C9.45781 10.1127 11.5266 8.79609 14.0693 8.79609H14.9744V29.3539C14.9744 31.5299 14.8451 32.2173 14.3284 32.7327C13.8972 33.1335 13.0351 33.3052 12.0434 33.3052H11.0521V34.6795H22.8621V33.3052H21.8648C20.8795 33.3052 20.0113 33.1331 19.5865 32.7327C19.0695 32.2173 18.9403 31.5297 18.9403 29.3539L18.9399 8.79609Z" fill="#ED008C"/>
<path d="M75.1293 34.6799L82.0119 10.6649V29.5104C82.0119 31.567 81.8949 32.2898 81.4282 32.79C81.0778 33.179 80.2657 33.346 79.3655 33.346H79.0154V34.6799H88.744V33.346H88.2377C87.3428 33.346 86.5257 33.1792 86.1756 32.79C85.7082 32.2898 85.5916 31.567 85.5916 29.5104V13.4447C85.5916 11.3877 85.7082 10.6094 86.1756 10.1092C86.5646 9.77573 87.3428 9.55319 88.2377 9.55319H88.744V8.27441H81.1948L75.5132 27.6755L69.954 8.27441H62.4436V9.55319H63.1438C65.2065 9.55319 65.5955 9.99794 65.5955 12.6664V27.9536C65.5955 30.3996 65.4787 31.4003 65.1284 32.1231C64.7394 32.8458 63.9165 33.346 63.0659 33.346H62.4434V34.6799H70.4593V33.346H69.9537C68.9421 33.346 68.1246 32.9568 67.6521 32.1785C67.1908 31.4003 67.0741 30.6775 67.0741 27.9536V10.6652L73.9172 34.6802L75.1293 34.6799Z" fill="#999B9E"/>
<path d="M97.1113 15.89C92.2861 15.89 89.1343 19.6702 89.1343 25.6187C89.1343 31.3445 92.2861 35.2361 96.9897 35.2361C101.736 35.2361 104.889 31.3445 104.889 25.5632C104.889 19.8369 101.736 15.89 97.1113 15.89ZM96.9559 17.1684C98.3513 17.1684 99.5573 18.0579 100.219 19.559C100.842 20.9487 101.114 22.8389 101.114 25.5629C101.114 31.1772 99.7518 33.9566 96.9893 33.9566C94.2318 33.9566 92.903 31.1768 92.903 25.507C92.903 22.8385 93.1807 20.9487 93.8034 19.559C94.4209 18.1138 95.6716 17.1684 96.9559 17.1684Z" fill="#999B9E"/>
<path d="M111.355 7.99634L105.829 8.27434V9.49733H106.096C107.73 9.49733 108.086 10.0533 108.086 12.666V30.733C108.086 33.0676 108.008 33.6794 107.697 34.6799H108.981C109.948 33.0676 110.187 32.79 110.576 32.79C110.765 32.79 110.954 32.8453 111.233 33.1234C113.144 34.6799 113.962 35.0134 115.713 35.0134C119.91 35.0134 122.945 30.9551 122.945 25.1738C122.945 19.7259 120.138 16.0569 115.941 16.0569C113.762 16.0569 112.172 17.1131 111.355 19.0031V7.99634ZM115.391 17.4466C117.887 17.4466 119.171 20.1151 119.171 25.3404C119.171 30.8439 117.848 33.679 115.318 33.679C112.516 33.679 111.043 30.7881 111.043 25.5072C111.043 22.8387 111.394 21.0046 112.211 19.6146C112.944 18.2807 114.195 17.4466 115.391 17.4466Z" fill="#999B9E"/>
<path d="M130.142 16.1681L124.466 16.5015V17.7245H124.895C126.523 17.7245 126.874 18.2805 126.874 20.8377V30.2325C126.874 32.7901 126.523 33.4017 124.895 33.4017H124.277V34.6797H132.75V33.4017H132.138C130.499 33.4017 130.143 32.8453 130.143 30.2325L130.142 16.1681Z" fill="#999B9E"/>
<path d="M139.989 7.99634L134.313 8.27434V9.49733H134.735C136.371 9.49733 136.72 10.0533 136.72 12.666V30.2323C136.72 32.8453 136.371 33.4015 134.735 33.4015H134.119V34.6795H142.596V33.4015H141.974C140.333 33.4015 139.989 32.8451 139.989 30.2323V7.99634Z" fill="#999B9E"/>
<path d="M158.078 25.4516C157.888 19.5589 155.087 15.89 150.852 15.89C146.759 15.89 143.808 19.8925 143.808 25.4516C143.808 31.3997 146.72 35.2357 151.235 35.2357C154.154 35.2357 156.176 33.679 157.849 30.2323L156.683 29.6207C155.321 32.5114 153.959 33.679 151.858 33.679C148.783 33.679 147.466 31.2333 147.426 25.4516H158.078ZM147.465 24.0616C147.499 19.8925 148.855 17.2797 151.04 17.2797C153.219 17.2797 154.503 19.8369 154.464 24.0616H147.465Z" fill="#999B9E"/>
<path d="M170.485 15.4369C170.814 15.4369 171.135 15.5211 171.449 15.6899C171.762 15.8586 172.005 16.1 172.18 16.414C172.355 16.7278 172.442 17.0551 172.442 17.3961C172.442 17.7336 172.356 18.0579 172.183 18.3692C172.011 18.6806 171.77 18.9224 171.46 19.0946C171.15 19.2667 170.825 19.353 170.485 19.353C170.146 19.353 169.821 19.2671 169.51 19.0946C169.2 18.9224 168.958 18.681 168.785 18.3692C168.612 18.0579 168.525 17.7336 168.525 17.3961C168.525 17.0551 168.613 16.7278 168.789 16.414C168.964 16.1 169.209 15.8582 169.522 15.6899C169.837 15.5211 170.156 15.4369 170.485 15.4369ZM170.485 15.7629C170.211 15.7629 169.943 15.8333 169.683 15.9743C169.423 16.1154 169.219 16.3162 169.072 16.578C168.925 16.8397 168.853 17.1127 168.853 17.3957C168.853 17.6774 168.924 17.9474 169.07 18.2058C169.213 18.4642 169.415 18.6654 169.674 18.8099C169.934 18.9543 170.204 19.0263 170.485 19.0263C170.767 19.0263 171.038 18.9543 171.297 18.8099C171.557 18.6657 171.757 18.4645 171.901 18.2058C172.044 17.9474 172.115 17.6774 172.115 17.3957C172.115 17.1127 172.043 16.8397 171.897 16.578C171.75 16.3165 171.547 16.1154 171.286 15.9743C171.026 15.8333 170.758 15.7629 170.485 15.7629ZM169.626 18.4763V16.3692H170.351C170.6 16.3692 170.779 16.3889 170.89 16.4278C171.001 16.4668 171.088 16.5347 171.155 16.6317C171.221 16.7284 171.254 16.8317 171.254 16.9406C171.254 17.0944 171.199 17.2287 171.089 17.3427C170.978 17.4567 170.832 17.5209 170.65 17.5348C170.724 17.5659 170.784 17.6031 170.829 17.6464C170.914 17.7293 171.018 17.8685 171.14 18.0641L171.398 18.4767H170.981L170.793 18.1443C170.646 17.8841 170.528 17.7211 170.44 17.6548C170.377 17.6058 170.286 17.5815 170.167 17.5815H169.967V18.4767L169.626 18.4763ZM169.967 17.292H170.381C170.579 17.292 170.714 17.2625 170.787 17.2033C170.858 17.1442 170.895 17.066 170.895 16.9685C170.895 16.906 170.877 16.8499 170.843 16.8005C170.808 16.7512 170.76 16.7139 170.697 16.6896C170.636 16.6653 170.522 16.6534 170.355 16.6534H169.967V17.292Z" fill="#999B9E"/>
</svg>
